<svg width="1104" height="917" viewBox="0 0 1104 917" fill="none" xmlns="http://www.w3.org/2000/svg">
<path d="M539 307.055C539 302.084 534.971 298.055 530 298.055C525.029 298.055 521 302.084 521 307.055V907.059C521 912.029 525.029 916.059 530 916.059C534.971 916.059 539 912.029 539 907.059V307.055Z" fill="#2B254E"/>
<path fill-rule="evenodd" clip-rule="evenodd" d="M184 335.055L176.5 370.055L130.5 382.055L49 405.055L77 370.055L31.5 379.055L71.5 355.629L36.5 355.555L0 332.055L43.5 335.129C84.167 340.08 104.5 342.555 104.5 342.555C104.5 342.555 84.167 330.055 43.5 305.055L184 335.055ZM918 362.055L1058.5 332.055C1036.83 347.104 1026 354.629 1026 354.629C1026 354.629 1038.67 357.104 1064 362.055L1104 389.055L1064 378.129L1012.5 378.055L1070.5 406.055L1006.5 389.055L1053 432.055L978.5 397.055H925.5L918 362.055ZM543.016 79.035L541.828 51.007L530.83 29.449L559.742 49.785L558.152 24.096L525.106 0L538.331 2.52299L565.406 18.653L573.53 44.845L580.676 5.498L586.877 37.401L603.061 15.485L592.293 56.931L613.5 32.555L595 83.055L543.016 79.035ZM415.338 664.872L441.716 682.454L435.906 729.291L427.051 812.8L418.911 800.84L415.411 769.84L381.911 812.84L396.248 758.488L374.911 800.84L355.911 823.84L362.411 795.34C375.411 762.677 381.911 746.343 381.911 746.343C381.911 746.343 375.411 757.01 362.411 778.34L342.476 787.87L415.338 664.872ZM550.348 686.881L581.013 694.917L590.768 741.094L609.583 822.94L597.5 812.63L585.74 785.24L584.592 786.11L584.5 844.13L578 831.63L566.5 756.129H565L561 812.63L554 848.13H552L547.5 812.63V781.63L539 806.13L521.5 826.9L550.348 686.881Z" fill="#FFD25B"/>
<path fill-rule="evenodd" clip-rule="evenodd" d="M530 297.633L477.5 432.133H605L567.5 307.633L530 297.633Z" fill="#FFD25B"/>
<mask id="mask0_402_241" style="mask-type:alpha" maskUnits="userSpaceOnUse" x="384" y="422" width="238" height="303">
<path d="M411.5 603.055L390.072 659.096C383.841 675.389 382.769 693.205 387 710.128C390.667 715.461 398.833 719.128 411.5 721.128C424.167 723.128 433.352 723.179 439.055 721.282L446.019 713.736C454.919 704.092 461.834 692.79 466.369 680.475L522.217 528.822L530 528.628V673.796C530 690.343 534.704 706.548 543.564 720.523C550.855 722.926 559.333 724.128 569 724.128C578.667 724.128 585.167 722.295 588.5 718.628C599.252 705.921 605.945 690.28 607.714 673.729L622 540.055L605 432.128C594.778 429.461 582.278 428.128 567.5 428.128C552.722 428.128 522.722 426.27 477.5 422.555L411.5 603.055Z" fill="white"/>
</mask>
<g mask="url(#mask0_402_241)">
<path d="M411.5 603.055L390.072 659.096C383.841 675.389 382.769 693.205 387 710.128C390.667 715.461 398.833 719.128 411.5 721.128C424.167 723.128 433.352 723.179 439.055 721.282L446.019 713.736C454.919 704.092 461.834 692.79 466.369 680.475L522.217 528.822L530 528.628V673.796C530 690.343 534.704 706.548 543.564 720.523C550.855 722.926 559.333 724.128 569 724.128C578.667 724.128 585.167 722.295 588.5 718.628C599.252 705.921 605.945 690.28 607.714 673.729L622 540.055L605 432.128C594.778 429.461 582.278 428.128 567.5 428.128C552.722 428.128 522.722 426.27 477.5 422.555L411.5 603.055Z" fill="#FF6D5B"/>
<path fill-rule="evenodd" clip-rule="evenodd" d="M480.666 642.143L445.5 649.627L482.236 612.185L471.973 550.062L509.374 572.05L480.666 642.143Z" fill="#FFD25B"/>
</g>
<path fill-rule="evenodd" clip-rule="evenodd" d="M602 306.555C629.333 325.888 657.17 339.555 685.5 347.555C713.83 355.555 795.67 355.555 931 347.555V432.128L756.06 438.556C745.75 438.935 735.44 437.716 725.5 434.943L622 406.055L685.5 587.055L662.71 589.746L650.5 578.128L645.5 589.628L615.249 595.35L605 578.128L594.658 597.781L550 603.055L561 310.555L602 306.555ZM494.5 298.055L532.5 304.555L428.5 603.055L385 593.628L381 581.128L369.31 590.342L359 588.128V566.128L339.615 585.254L315 581.055L428.5 376.555C393.167 391.604 367.167 399.128 350.5 399.128C333.833 399.128 274.167 399.128 171.5 399.128V359.628V320.555C289.167 313.888 361.667 310.555 389 310.555C416.333 310.555 451.5 306.388 494.5 298.055Z" fill="#2B254E"/>
<path fill-rule="evenodd" clip-rule="evenodd" d="M931 347.555H1018.75C1022.75 347.555 1026 350.801 1026 354.805C1026 358.809 1022.75 362.055 1018.75 362.055H931V347.555ZM84.25 347.555H172V362.055H84.25C80.246 362.055 77 358.809 77 354.805C77 350.801 80.246 347.555 84.25 347.555Z" fill="#847DAA"/>
<path fill-rule="evenodd" clip-rule="evenodd" d="M587.145 331.558L597.432 491.075L597.5 491.058L599 507.132L593.5 507.058V492.499L584.162 493.358L585.5 507.632H580V493.741L571.18 494.552L572.5 508.632H567V494.936L558 495.764V509.632H553.5L553.986 495.531L550.229 331.558C536.773 331.558 525.197 331.558 524.5 331.558C523 331.558 504 294.558 574 300.058C598.571 301.989 610.71 296.464 618 300.058C622.861 302.454 623.694 309.121 620.5 320.058C608.834 327.725 598.834 331.558 590.5 331.558C589.583 331.558 588.453 331.558 587.145 331.558Z" fill="#60588E"/>
<path fill-rule="evenodd" clip-rule="evenodd" d="M383.5 201.128C388.014 220.984 401.014 236.459 422.5 247.555C443.986 258.65 476.986 267.15 521.5 273.055L654.32 273.12L677.36 262.944L690.16 257.293C704.54 250.94 717.04 240.966 726.42 228.345L731 222.19C730.18 217.649 717.35 210.295 692.5 200.128C667.65 189.962 635.29 179.156 595.414 167.712C579.42 156.907 555.711 154.318 524.286 159.945C495.976 165.014 452.392 164.974 400 186.128C396.157 187.68 390.657 192.68 383.5 201.128Z" fill="#2B254E"/>
<path fill-rule="evenodd" clip-rule="evenodd" d="M482.5 292.055C476.5 293.388 473.5 298.221 473.5 306.555C473.5 314.888 490.5 323.246 524.5 331.628C528.724 325.471 532.891 321.138 537 318.628C541.109 316.118 548.442 313.427 559 310.555L482.5 292.055Z" fill="#847DAA"/>
<mask id="mask1_402_241" style="mask-type:alpha" maskUnits="userSpaceOnUse" x="440" y="135" width="222" height="175">
<path d="M550.862 309.038C573.226 309.038 582.278 309.619 610.734 303.205C618.102 301.544 619.177 297.275 625.373 293.733C629.321 291.475 634.35 288.264 637.73 286.904C661.13 277.476 661.4 247.251 661.4 221.941C661.4 185.661 618.658 152.463 588.077 139.788C570.883 132.661 573.125 138.22 550.862 138.22C535.473 138.22 546.884 132.33 533.537 137.476C493.235 153.013 445.307 182.948 441.009 218.592C437.864 244.676 446.155 281.901 476.564 293.788C478.372 294.494 486.48 297.162 490.172 298.893C493.701 300.548 494.573 303.596 496.269 304.285C512.38 310.83 530.34 309.038 550.862 309.038Z" fill="white"/>
</mask>
<g mask="url(#mask1_402_241)">
<path d="M541.798 308.559C564.039 310.896 572.981 312.42 601.952 309.015C609.453 308.134 610.968 304.001 617.501 301.125C621.663 299.293 627.001 296.625 630.501 295.625C654.76 288.695 658.19 258.664 660.84 233.493C664.63 197.412 625.588 159.927 596.501 144.125C580.145 135.24 581.794 141.003 559.653 138.676C544.348 137.067 556.313 132.403 542.501 136.125C500.795 147.364 450.001 172.125 442.001 207.125C436.146 232.737 440.501 270.625 469.501 285.625C471.225 286.517 479.01 290.018 482.501 292.125C485.838 294.14 486.385 297.263 488.001 298.125C503.339 306.318 521.388 306.414 541.798 308.559Z" fill="#FF6D5B"/>
</g>
<path fill-rule="evenodd" clip-rule="evenodd" d="M508.488 184.006L522.16 185.927C527.046 186.614 531.281 189.659 533.488 194.071C539.058 205.207 541.731 211.573 541.507 213.17C541.283 214.764 537.119 219.08 529.015 226.118C525.739 228.964 521.39 230.251 517.092 229.647L501.249 227.421C496.615 226.769 492.551 223.993 490.259 219.914C485.978 212.295 483.994 207.37 484.307 205.14C484.625 202.884 488.099 197.65 494.73 189.437C498.042 185.334 503.266 183.272 508.488 184.006ZM606.969 195.389L616.806 196.249C621.984 196.702 626.558 199.803 628.896 204.444C634.12 214.809 636.66 220.778 636.52 222.352C636.38 223.913 632.98 228.278 626.316 235.446C623.166 238.833 618.631 240.577 614.024 240.174L602.036 239.125C597.086 238.692 592.671 235.835 590.248 231.497C586.371 224.555 584.527 219.999 584.717 217.829C584.911 215.611 587.708 210.375 593.109 202.12C596.135 197.493 601.461 194.907 606.969 195.389Z" fill="white"/>
<path fill-rule="evenodd" clip-rule="evenodd" d="M518 212.633C514.134 212.633 511 209.499 511 205.633C511 201.767 514.134 198.633 518 198.633C521.866 198.633 525 201.767 525 205.633C525 209.499 521.866 212.633 518 212.633ZM612.819 223.815C608.953 223.815 605.819 220.681 605.819 216.815C605.819 212.949 608.953 209.815 612.819 209.815C616.685 209.815 619.819 212.949 619.819 216.815C619.819 220.681 616.685 223.815 612.819 223.815ZM567.634 203.542C567.908 202.881 568.514 202.417 569.223 202.325C570.319 202.182 571.322 202.955 571.464 204.05L576.67 244.095C576.691 244.257 576.692 244.42 576.674 244.582C576.547 245.679 575.555 246.466 574.458 246.34L553.634 243.937C553.45 243.916 553.269 243.869 553.097 243.797C552.077 243.374 551.593 242.204 552.016 241.184L567.634 203.542ZM478.74 244.055L502.357 244.909L519.864 258.722L540.858 250.738L556.369 264.69L580.715 254.467L593.882 263.57L606.397 256.179L634.42 262.74L606.99 264.659L588.873 277.955L576.923 264.756L553.68 276.406L537.066 261.027L520.701 270.693L500.955 253.528L478.74 244.055Z" fill="#2B254E"/>
<path fill-rule="evenodd" clip-rule="evenodd" d="M528.439 80.652L525.5 113.552L603 123.052L604.496 89.021C604.791 82.309 600.276 76.334 593.739 74.784C580.107 71.552 569.396 69.495 561.606 68.614C555.395 67.911 548.832 67.675 541.918 67.906C534.851 68.141 529.069 73.609 528.439 80.652Z" fill="#60588E"/>
<mask id="mask2_402_241" style="mask-type:alpha" maskUnits="userSpaceOnUse" x="383" y="76" width="348" height="148">
<path d="M530 76.1328C509.667 119.466 480.667 148.775 443 164.059C418.128 174.152 400.433 179.984 391.196 189.766C388.268 192.867 385.703 196.656 383.5 201.133C392.318 203.906 398.818 205.74 403 206.633C454.5 217.633 492.832 211.546 516 207.133C527.06 205.026 543.84 200.943 566.341 194.884C579.215 191.418 592.652 190.56 605.861 192.363C660.92 199.875 694.64 205.632 707 209.633C720.82 214.105 728.71 218.581 730.68 223.059C732.16 212.701 728.46 204.563 719.59 198.644C715.27 195.761 690.04 190.072 671.5 178.059C661.4 171.513 647.28 159.012 629.156 140.557C618.357 129.562 610.833 115.777 607.426 100.746L604 85.6328L530 76.1328Z" fill="white"/>
</mask>
<g mask="url(#mask2_402_241)">
<path d="M530 76.1328C509.667 119.466 480.667 148.775 443 164.059C418.128 174.152 400.433 179.984 391.196 189.766C388.268 192.867 385.703 196.656 383.5 201.133C392.318 203.906 398.818 205.74 403 206.633C454.5 217.633 492.832 211.546 516 207.133C527.06 205.026 543.84 200.943 566.341 194.884C579.215 191.418 592.652 190.56 605.861 192.363C660.92 199.875 694.64 205.632 707 209.633C720.82 214.105 728.71 218.581 730.68 223.059C732.16 212.701 728.46 204.563 719.59 198.644C715.27 195.761 690.04 190.072 671.5 178.059C661.4 171.513 647.28 159.012 629.156 140.557C618.357 129.562 610.833 115.777 607.426 100.746L604 85.6328L530 76.1328Z" fill="#60588E"/>
<mask id="mask3_402_241" style="mask-type:alpha" maskUnits="userSpaceOnUse" x="484" y="79" width="92" height="71">
<path d="M484.5 139.133L516.5 118.133L530 149.633L546 118.133L576 114.133L546 100.633L525.5 79.6328L484.5 139.133Z" fill="white"/>
</mask>
<g mask="url(#mask3_402_241)">
<path d="M484.5 139.133L516.5 118.133L530 149.633L546 118.133L576 114.133L546 100.633L525.5 79.6328L484.5 139.133Z" fill="#2B254E"/>
<path fill-rule="evenodd" clip-rule="evenodd" d="M538 93.1328L516.5 144.633L530 157.133L590.5 114.633L538 93.1328Z" fill="#FFD25B"/>
</g>
</g>
<path d="M175 117.633C197.644 117.633 216 99.2768 216 76.6328C216 53.9888 197.644 35.6328 175 35.6328C152.356 35.6328 134 53.9888 134 76.6328C134 99.2768 152.356 117.633 175 117.633Z" fill="#EBEEF6"/>
<path fill-rule="evenodd" clip-rule="evenodd" d="M265 185.633L258 207.133C241.333 207.133 233 207.133 233 207.133C233 207.133 241.333 209.3 258 213.633C260.667 231.3 262 240.133 262 240.133C262 240.133 263.667 232.133 267 216.133L288.5 211.133L267 207.133L265 185.633Z" fill="#FFD25B"/>
<path fill-rule="evenodd" clip-rule="evenodd" d="M368.333 74.1328L363.667 88.3348C352.556 88.3348 347 88.3348 347 88.3348C347 88.3348 352.556 89.7658 363.667 92.6278C365.444 104.298 366.333 110.133 366.333 110.133C366.333 110.133 367.444 104.849 369.667 94.2798L384 90.9768L369.667 88.3348L368.333 74.1328Z" fill="#FFD25B"/>
<path fill-rule="evenodd" clip-rule="evenodd" d="M266.713 514.716C266.716 514.752 266.716 514.788 266.713 514.824C266.514 517.092 254.586 519.065 239.91 517.779C225.235 516.492 213.802 513.677 214.001 511.408C214.011 511.288 214.054 511.172 214.128 511.06L218 491.632L217.814 472.827L220.102 449.266L271.681 453.726L264.567 473.533L266.792 514.721L266.713 514.716ZM901.33 551.549C901.34 551.582 901.35 551.617 901.35 551.653C901.75 553.895 890.74 558.888 876.23 561.444C861.72 564 849.95 564.239 849.55 561.996C849.53 561.865 849.55 561.728 849.6 561.586L849.5 544.632L841.07 523.756C839.7 520.375 839.04 516.753 839.11 513.108L839.36 500.392L890.34 491.351C892.6 497.969 893.99 503.729 894.5 508.632C895.01 513.535 895.01 521.035 894.5 531.132L901.4 551.533L901.33 551.549ZM794.75 545.293C794.75 545.329 794.75 545.365 794.75 545.401C794.59 547.672 782.7 549.853 768 548.823C753.31 547.793 741.83 545.177 741.99 542.906C742 542.789 742.03 542.676 742.1 542.565L745 524.632L745.13 504.263L747 480.666L798.65 484.226L791.5 519.132L794.83 545.297L794.75 545.293Z" fill="#847DAA"/>
<path fill-rule="evenodd" clip-rule="evenodd" d="M245.549 455.782C231.493 454.55 220.259 451.713 220.458 449.444C220.656 447.176 232.21 446.336 246.266 447.568C260.321 448.8 271.555 451.637 271.357 453.906C271.158 456.174 259.604 457.014 245.549 455.782ZM865.63 500.101C851.73 502.548 840.15 502.715 839.75 500.472C839.36 498.23 850.3 494.428 864.2 491.98C878.09 489.532 889.68 489.366 890.07 491.608C890.47 493.851 879.53 497.653 865.63 500.101ZM772.56 486.738C758.48 485.751 747.2 483.11 747.36 480.838C747.52 478.567 759.06 477.525 773.13 478.512C787.21 479.498 798.49 482.14 798.33 484.411C798.17 486.683 786.63 487.724 772.56 486.738Z" fill="#60588E"/>
<path d="M257.864 491.463L257.337 497.479L251.648 496.982L251.253 501.494L243.937 500.853L244.332 496.342L224.255 494.585L224.781 488.569L246.361 473.148L253.677 473.789L252.174 490.966L257.864 491.463ZM232.624 490.512L244.534 491.554L245.457 480.999L232.624 490.512ZM886.76 531.378L887.81 537.326L882.18 538.317L882.97 542.778L875.74 544.053L874.95 539.593L855.11 543.092L854.06 537.145L870.91 516.665L878.14 515.389L881.14 532.37L886.76 531.378ZM862.13 536.992L873.91 534.916L872.07 524.482L862.13 536.992ZM770 532.63C759.15 532.63 754 527.653 754 518.592C754 509.569 759.15 504.63 770 504.63C780.81 504.63 786 509.608 786 518.592C786 527.614 780.81 532.63 770 532.63ZM770 527.63C776.18 527.63 779 524.418 779 519.09C779 513.803 776.18 510.63 770 510.63C763.82 510.63 761 513.762 761 519.09C761 524.458 763.82 527.63 770 527.63Z" fill="white"/>
<path fill-rule="evenodd" clip-rule="evenodd" d="M254.954 382.742L259.165 383.623L249.667 450.999C249.512 452.1 248.494 452.867 247.393 452.712C247.349 452.706 247.305 452.698 247.262 452.689C246.077 452.441 245.287 451.317 245.456 450.118L254.954 382.742ZM779.34 413.632L783.57 414.439L775.24 481.971C775.11 483.075 774.1 483.859 773 483.723C772.96 483.718 772.91 483.711 772.87 483.702C771.68 483.475 770.87 482.365 771.02 481.164L779.34 413.632ZM849.34 427.683L853.61 427.145L866.57 493.943C866.78 495.035 866.07 496.091 864.97 496.303C864.93 496.311 864.89 496.318 864.84 496.324C863.64 496.475 862.53 495.669 862.3 494.481L849.34 427.683Z" fill="#2B254E"/>
<path fill-rule="evenodd" clip-rule="evenodd" d="M162 102.133C163.918 102.133 165.402 101.557 166.5 100.133C167.3 99.0958 168 97.4128 168 96.1328C168 94.5198 167.707 92.7708 166.5 91.6328C165.434 90.6278 163.554 90.1328 162 90.1328C160.417 90.1328 158.572 90.5958 157.5 91.6328C156.327 92.7668 156 94.5458 156 96.1328C156 99.1698 158.686 102.133 162 102.133Z" fill="#C1C6D3"/>
<path fill-rule="evenodd" clip-rule="evenodd" d="M185 70.6328C187.876 70.6328 190.102 69.7698 191.75 67.6328C192.95 66.0768 194 63.5528 194 61.6328C194 59.2128 193.56 56.5898 191.75 54.8828C190.152 53.3748 187.331 52.6328 185 52.6328C182.626 52.6328 179.858 53.3278 178.25 54.8828C176.491 56.5838 176 59.2528 176 61.6328C176 66.1888 180.029 70.6328 185 70.6328Z" fill="#C1C6D3"/>
<path fill-rule="evenodd" clip-rule="evenodd" d="M197.884 86.9452C199.104 86.1832 199.819 85.2272 199.952 83.8852C200.048 82.9072 199.825 81.5581 199.316 80.7441C198.675 79.7181 197.793 78.7231 196.573 78.4781C195.496 78.2621 194.103 78.6951 193.115 79.3131C192.108 79.9421 191.119 80.9701 190.849 82.0551C190.554 83.2431 191.053 84.5042 191.683 85.5132C192.891 87.4452 195.777 88.2622 197.884 86.9452Z" fill="#C1C6D3"/>
</svg>
