<svg width="250" height="250" viewBox="0 0 250 250" fill="none" xmlns="http://www.w3.org/2000/svg">
<path d="M91.8903 213.045C93.6727 214.406 95.872 215.11 98.1056 214.908C151.337 210.097 222.05 135.864 222.05 83.4036C222.05 56.6039 200.325 34.8784 173.525 34.8784C150.013 34.8784 130.407 72.2275 125.95 81.3917C125.572 82.1686 124.428 82.1686 124.05 81.3917C119.593 72.2275 99.9867 34.8784 76.4749 34.8784C49.6752 34.8784 27.9497 56.6039 27.9497 83.4036C27.9497 135.844 50.4491 181.399 91.8903 213.045Z" fill="#FF3767"/>
<path d="M76.5248 58.1324C65.1867 59.232 50.3747 66.8536 47.5618 90.7922C47.3169 92.876 49.9829 93.6041 51.0202 91.7803C58.5095 78.6114 65.4684 70.6492 77.5825 61.3009C79.0481 60.17 78.3674 57.9538 76.5248 58.1324Z" fill="white" fill-opacity="0.4"/>
<mask id="mask0_201_28" style="mask-type:alpha" maskUnits="userSpaceOnUse" x="27" y="34" width="196" height="181">
<path d="M91.8903 213.045C93.6727 214.406 95.872 215.11 98.1056 214.908C151.337 210.097 222.05 135.864 222.05 83.4036C222.05 56.6039 200.325 34.8784 173.525 34.8784C150.013 34.8784 130.407 72.2275 125.95 81.3917C125.572 82.1686 124.428 82.1686 124.05 81.3917C119.593 72.2275 99.9867 34.8784 76.4749 34.8784C49.6752 34.8784 27.9497 56.6039 27.9497 83.4036C27.9497 135.844 50.4491 181.399 91.8903 213.045Z" fill="#FF3767"/>
</mask>
<g mask="url(#mask0_201_28)">
<path d="M204.77 22.2764C175.974 181.572 128.977 200.733 27.9497 170.014L89.604 282.078L299.384 71.9099L204.77 22.2764Z" fill="black" fill-opacity="0.17"/>
</g>
</svg>
