<svg width="250" height="250" viewBox="0 0 250 250" fill="none" xmlns="http://www.w3.org/2000/svg">
<path d="M91.8903 213.044C93.6727 214.405 95.872 215.109 98.1056 214.907C151.337 210.097 222.05 135.864 222.05 83.4031C222.05 56.6034 200.325 34.8779 173.525 34.8779C150.013 34.8779 130.407 72.227 125.95 81.3912C125.572 82.1681 124.428 82.1681 124.05 81.3912C119.593 72.227 99.9867 34.8779 76.4749 34.8779C49.6752 34.8779 27.9497 56.6034 27.9497 83.4031C27.9497 135.844 50.4491 181.399 91.8903 213.044Z" fill="#FF3767"/>
<path d="M50.2967 104.712C44.7322 68.8128 66.397 58.1896 79.2455 57.2559C63.749 72.7971 57.4506 83.2164 50.2967 104.712Z" fill="white" fill-opacity="0.35"/>
<mask id="mask0_201_28" style="mask-type:alpha" maskUnits="userSpaceOnUse" x="27" y="34" width="196" height="181">
<path d="M91.8903 213.044C93.6727 214.405 95.872 215.109 98.1056 214.907C151.337 210.097 222.05 135.864 222.05 83.4031C222.05 56.6034 200.325 34.8779 173.525 34.8779C150.013 34.8779 130.407 72.227 125.95 81.3912C125.572 82.1681 124.428 82.1681 124.05 81.3912C119.593 72.227 99.9867 34.8779 76.4749 34.8779C49.6752 34.8779 27.9497 56.6034 27.9497 83.4031C27.9497 135.844 50.4491 181.399 91.8903 213.044Z" fill="#FF3767"/>
</mask>
<g mask="url(#mask0_201_28)">
<path d="M204.77 22.2759C175.974 181.571 128.977 200.732 27.9497 170.014L89.604 282.078L299.384 71.9094L204.77 22.2759Z" fill="black" fill-opacity="0.2"/>
</g>
</svg>
